<?xml version="1.0" encoding="UTF-8"?>
<svg version="1.1" xmlns="http://www.w3.org/2000/svg" width="60" height="60">
<path d="M0 0 C0.88365234 0.02255859 1.76730469 0.04511719 2.67773438 0.06835938 C4.8483891 0.12702572 7.0181669 0.21670021 9.1875 0.3125 C9.1875 1.6325 9.1875 2.9525 9.1875 4.3125 C9.84234375 4.72113281 10.4971875 5.12976563 11.171875 5.55078125 C13.1875 7.3125 13.1875 7.3125 13.578125 11.10546875 C13.55160276 12.57082231 13.50399117 14.03591551 13.4375 15.5 C13.41945312 16.24958984 13.40140625 16.99917969 13.3828125 17.77148438 C13.33574109 19.6190371 13.26399766 21.46593159 13.1875 23.3125 C12.1975 23.6425 11.2075 23.9725 10.1875 24.3125 C10.084375 25.240625 9.98125 26.16875 9.875 27.125 C9.1804808 30.34504358 8.71009061 31.33829865 6.1875 33.3125 C6.8475 33.9725 7.5075 34.6325 8.1875 35.3125 C8.8475 33.6625 9.5075 32.0125 10.1875 30.3125 C11.5075 30.3125 12.8275 30.3125 14.1875 30.3125 C14.1875 29.6525 14.1875 28.9925 14.1875 28.3125 C14.8475 28.3125 15.5075 28.3125 16.1875 28.3125 C16.1875 28.9725 16.1875 29.6325 16.1875 30.3125 C21.4675 30.3125 26.7475 30.3125 32.1875 30.3125 C32.1875 29.6525 32.1875 28.9925 32.1875 28.3125 C32.8475 28.3125 33.5075 28.3125 34.1875 28.3125 C34.1875 28.9725 34.1875 29.6325 34.1875 30.3125 C35.8375 30.6425 37.4875 30.9725 39.1875 31.3125 C39.21215881 35.28180989 39.23034023 39.25109034 39.24243164 43.22045898 C39.24747057 44.57170386 39.25430177 45.92294326 39.26293945 47.27416992 C39.27502419 49.21270434 39.28019828 51.151278 39.28515625 53.08984375 C39.29039307 54.25765381 39.29562988 55.42546387 39.30102539 56.62866211 C39.1875 59.3125 39.1875 59.3125 38.1875 60.3125 C36.11487924 60.40017112 34.03929706 60.41945873 31.96484375 60.41015625 C30.70478516 60.40693359 29.44472656 60.40371094 28.14648438 60.40039062 C26.80598891 60.39203403 25.46549412 60.38356907 24.125 60.375 C22.78060058 60.3699866 21.4361994 60.36542342 20.09179688 60.36132812 C16.79032059 60.34949488 13.48893197 60.33300971 10.1875 60.3125 C9.8575 59.3225 9.5275 58.3325 9.1875 57.3125 C-0.7125 57.3125 -10.6125 57.3125 -20.8125 57.3125 C-20.8125 42.3125 -20.8125 42.3125 -16.8125 37.3125 C-14.19624148 35.91366105 -11.6632826 35.21524782 -8.8125 34.3125 C-8.60426832 32.17259434 -8.60426832 32.17259434 -10.3125 30.4375 C-11.8125 28.3125 -11.8125 28.3125 -11.8125 24.3125 C-12.8025 23.9825 -13.7925 23.6525 -14.8125 23.3125 C-14.94789281 20.41509378 -15.04676829 17.52404379 -15.125 14.625 C-15.16689453 13.80837891 -15.20878906 12.99175781 -15.25195312 12.15039062 C-15.33595049 8.00092088 -15.14374176 5.84465889 -12.90625 2.25 C-8.54406659 -0.48187244 -5.0323351 -0.24392377 0 0 Z " fill="#383837" transform="translate(20.8125,-0.3125)"/>
<path d="M0 0 C8.58 0 17.16 0 26 0 C26.020625 3.114375 26.04125 6.22875 26.0625 9.4375 C26.071604 10.42032959 26.08070801 11.40315918 26.09008789 12.41577148 C26.09258545 13.18477783 26.09508301 13.95378418 26.09765625 14.74609375 C26.10551147 15.93223267 26.10551147 15.93223267 26.11352539 17.14233398 C26 19 26 19 25 20 C23.23140807 20.09946453 21.45888549 20.13080217 19.6875 20.1328125 C18.61242187 20.13410156 17.53734375 20.13539062 16.4296875 20.13671875 C15.29789063 20.13285156 14.16609375 20.12898438 13 20.125 C11.86820313 20.12886719 10.73640625 20.13273437 9.5703125 20.13671875 C8.49523437 20.13542969 7.42015625 20.13414063 6.3125 20.1328125 C5.31863281 20.13168457 4.32476562 20.13055664 3.30078125 20.12939453 C1 20 1 20 0 19 C-0.08651611 17.58429877 -0.10704904 16.164405 -0.09765625 14.74609375 C-0.09515869 13.9770874 -0.09266113 13.20808105 -0.09008789 12.41577148 C-0.07643188 10.9415271 -0.07643188 10.9415271 -0.0625 9.4375 C-0.041875 6.323125 -0.02125 3.20875 0 0 Z " fill="#D7DBE1" transform="translate(32,38)"/>
<path d="M0 0 C2.97 0.495 2.97 0.495 6 1 C6 6.61 6 12.22 6 18 C-3.24 18 -12.48 18 -22 18 C-22 7 -22 7 -20.3125 3.875 C-17.73303185 1.78353934 -16.32535714 1 -13 1 C-11.97980427 1.9793879 -10.97850195 2.97895449 -10 4 C-8.01508358 3.73323796 -8.01508358 3.73323796 -6 3 C-2.23312136 3 -1.08809695 3.23537317 2 5 C2 4.34 2 3.68 2 3 C1.01 2.67 0.02 2.34 -1 2 C-0.67 1.34 -0.34 0.68 0 0 Z " fill="#487490" transform="translate(24,37)"/>
<path d="M0 0 C1.4375 2.125 1.4375 2.125 2 4 C2.66 4 3.32 4 4 4 C4 3.34 4 2.68 4 2 C4.66 2 5.32 2 6 2 C6 3.98 6 5.96 6 8 C5.01 8.33 4.02 8.66 3 9 C2.9071875 10.36125 2.9071875 10.36125 2.8125 11.75 C2 15 2 15 -0.125 17.375 C-3.75950603 19.42928602 -5.88360946 19.59874771 -10 19 C-13.18750407 16.81907617 -13.87868068 15.52571704 -14.75 11.75 C-14.8325 10.8425 -14.915 9.935 -15 9 C-15.99 8.67 -16.98 8.34 -18 8 C-18 6.02 -18 4.04 -18 2 C-17.34 2 -16.68 2 -16 2 C-16 2.66 -16 3.32 -16 4 C-15.34 4 -14.68 4 -14 4 C-13.773125 3.38125 -13.54625 2.7625 -13.3125 2.125 C-12 0 -12 0 -9.8125 -1.375 C-5.95560277 -2.23208827 -3.6173876 -1.50155712 0 0 Z " fill="#CA956E" transform="translate(26,13)"/>
<path d="M0 0 C1.0528418 0.01353516 1.0528418 0.01353516 2.12695312 0.02734375 C3.85561525 0.05086296 5.58410145 0.08673287 7.3125 0.125 C6.3225 1.61 6.3225 1.61 5.3125 3.125 C2.6875 3.3125 2.6875 3.3125 0.3125 3.125 C0.3125 3.785 0.3125 4.445 0.3125 5.125 C1.02277344 5.11339844 1.73304687 5.10179687 2.46484375 5.08984375 C3.38394531 5.08082031 4.30304687 5.07179688 5.25 5.0625 C6.16652344 5.05089844 7.08304688 5.03929687 8.02734375 5.02734375 C10.3125 5.125 10.3125 5.125 11.3125 6.125 C11.35313832 7.79117115 11.355221 9.45888095 11.3125 11.125 C7.7552202 10.69812642 4.76490481 10.33612224 1.5 8.8125 C-3.46786176 7.7410004 -7.22416046 9.99035935 -11.6875 12.125 C-11.6875 14.435 -11.6875 16.745 -11.6875 19.125 C-11.0275 19.455 -10.3675 19.785 -9.6875 20.125 C-8.67220459 22.45171865 -7.67261802 24.7853447 -6.6875 27.125 C-4.48952597 29.32297403 -3.51203855 29.58397517 -0.5625 30.25 C1.355625 30.683125 1.355625 30.683125 3.3125 31.125 C2.6525 32.445 1.9925 33.765 1.3125 35.125 C-0.3375 35.125 -1.9875 35.125 -3.6875 35.125 C-3.6875 35.785 -3.6875 36.445 -3.6875 37.125 C-3.0275 37.455 -2.3675 37.785 -1.6875 38.125 C-2.3475 38.785 -3.0075 39.445 -3.6875 40.125 C-6.62203261 39.75818342 -7.55187246 39.26062754 -9.6875 37.125 C-11.0075 37.125 -12.3275 37.125 -13.6875 37.125 C-12.44203595 33.38860784 -11.05345047 32.93743487 -7.6875 31.125 C-8.3475 30.3825 -9.0075 29.64 -9.6875 28.875 C-11.6875 26.125 -11.6875 26.125 -11.6875 22.125 C-12.6775 21.795 -13.6675 21.465 -14.6875 21.125 C-15.22071643 14.03025911 -14.61470999 8.21939945 -10.6875 2.125 C-7.00662647 -0.32891569 -4.24394412 -0.10302759 0 0 Z " fill="#5C4A3E" transform="translate(20.6875,1.875)"/>
<path d="M0 0 C0.66 0 1.32 0 2 0 C2.185625 1.7015625 2.185625 1.7015625 2.375 3.4375 C2.684375 5.2009375 2.684375 5.2009375 3 7 C3.66 7.33 4.32 7.66 5 8 C6.01529541 10.32671865 7.01488198 12.6603447 8 15 C10.19797403 17.19797403 11.17546145 17.45897517 14.125 18.125 C16.043125 18.558125 16.043125 18.558125 18 19 C17.34 20.32 16.68 21.64 16 23 C14.35 23 12.7 23 11 23 C11 23.66 11 24.32 11 25 C11.66 25.33 12.32 25.66 13 26 C12.34 26.66 11.68 27.32 11 28 C8.06546739 27.63318342 7.13562754 27.13562754 5 25 C3.68 25 2.36 25 1 25 C2.24546405 21.26360784 3.63404953 20.81243487 7 19 C6.34 18.2575 5.68 17.515 5 16.75 C3 14 3 14 3 10 C2.01 9.67 1.02 9.34 0 9 C0 6.03 0 3.06 0 0 Z " fill="#464544" transform="translate(6,14)"/>
<path d="M0 0 C0.639375 0.433125 1.27875 0.86625 1.9375 1.3125 C2.68 1.68375 3.4225 2.055 4.1875 2.4375 C4.765 2.72625 5.3425 3.015 5.9375 3.3125 C5.23808404 6.45987182 4.17671302 9.33838876 2.9375 12.3125 C0.2975 12.3125 -2.3425 12.3125 -5.0625 12.3125 C-8.0625 7.0325 -8.0625 7.0325 -8.0625 4.125 C-6.29800038 0.92684444 -3.65462202 -1.21820734 0 0 Z " fill="#514E4A" transform="translate(46.0625,41.6875)"/>
<path d="M0 0 C0.66 0 1.32 0 2 0 C2 0.66 2 1.32 2 2 C2.66 2 3.32 2 4 2 C4 1.34 4 0.68 4 0 C9.28 0 14.56 0 20 0 C20 0.66 20 1.32 20 2 C20.66 2 21.32 2 22 2 C22 1.34 22 0.68 22 0 C22.99 0.33 23.98 0.66 25 1 C25 1.99 25 2.98 25 4 C16.42 4 7.84 4 -1 4 C-0.67 2.68 -0.34 1.36 0 0 Z " fill="#EB5D68" transform="translate(33,32)"/>
<path d="M0 0 C1.67752995 0.91914662 3.28342518 1.96629387 4.875 3.02734375 C4.545 4.01734375 4.215 5.00734375 3.875 6.02734375 C3.215 6.02734375 2.555 6.02734375 1.875 6.02734375 C1.215 5.03734375 0.555 4.04734375 -0.125 3.02734375 C-4.26937915 1.27395257 -6.22423073 0.6937255 -10.5 2.27734375 C-13.19993765 3.76376994 -13.19993765 3.76376994 -14.125 6.02734375 C-14.785 6.02734375 -15.445 6.02734375 -16.125 6.02734375 C-16.125 5.36734375 -16.125 4.70734375 -16.125 4.02734375 C-16.785 3.69734375 -17.445 3.36734375 -18.125 3.02734375 C-11.62525531 -0.70241629 -7.1701804 -3.07105153 0 0 Z " fill="#423D3A" transform="translate(26.125,10.97265625)"/>
<path d="M0 0 C2.6875 0.875 2.6875 0.875 5 2 C4.67 3.98 4.34 5.96 4 8 C2.02 8 0.04 8 -2 8 C-2.33 6.02 -2.66 4.04 -3 2 C-2.01 1.34 -1.02 0.68 0 0 Z " fill="#EFAC43" transform="translate(44,44)"/>
<path d="M0 0 C0.66 0 1.32 0 2 0 C2.33 0.66 2.66 1.32 3 2 C4.32 2 5.64 2 7 2 C7.33 1.34 7.66 0.68 8 0 C8.66 0 9.32 0 10 0 C9.67 1.65 9.34 3.3 9 5 C6.36 5 3.72 5 1 5 C0.67 3.35 0.34 1.7 0 0 Z " fill="#43413E" transform="translate(40,49)"/>
<path d="M0 0 C2.64 0 5.28 0 8 0 C7.01 1.485 7.01 1.485 6 3 C3.5625 2.625 3.5625 2.625 1 2 C0.67 1.34 0.34 0.68 0 0 Z " fill="#AB7D5D" transform="translate(16,34)"/>
</svg>
